# xmcd
#
# Track frame offsets:
#	150
#	14920
#	29005
#	42622
#	56447
#	71105
#	85665
#	100950
#	114410
#	129385
#	144355
#	159365
#	171810
#	185965
#	198960
#	212672
#	227255
#	241132
#	254972
#	269832
#	283360
#	298078
#	312193
#
# Disc length: 4341 seconds
#
# Revision: 0
# Processed by: cddbd v1.5.1PL0 Copyright (c) Steve Scherf et al.
# Submitted via: dBpowerAMP V4.0
#
DISCID=6910f317
DTITLE=Various Artist - Hardcore 100 Part 2, CD1
DYEAR=1900
DGENRE=Hardcore
TTITLE0=Horrorist - Flesh Is The Fever
TTITLE1=Buzz Fuzz - Jealousy (Is A M.F.)
TTITLE2=Jappo and Lancinhouse - Ex Lx Ax
TTITLE3=Gizmo - Don't You Want My Lovin'
TTITLE4=Dyewitness - Brrr
TTITLE5=Chosen Few - Freedom
TTITLE6=Darrien Kelly and Unknown MC - The People Want More
TTITLE7=They Livelong - Something Big
TTITLE8=Neophyte - Braincracking
TTITLE9=Tiny Tot - La Bombolina (Stunned Guys mix)
TTITLE10=Ramirez - Therapia
TTITLE11=Thunderball - It's Your DJ
TTITLE12=Leviathan - Yes, No
TTITLE13=Cyclopede - Bad Motherfuckers
TTITLE14=Pino D'Ambini - Up and Down Ballz
TTITLE15=Public Domain - So Get Up
TTITLE16=Yves DeRuyter - Calling Earth
TTITLE17=T.O.P.D.R.O.P. - Achtung
TTITLE18=Nasty Django - E Loco
TTITLE19=Darkraver and Vince - Thunderground
TTITLE20=Juggernaut - XTC Motherfucker
TTITLE21=Bodylotion - Always Hardcore
TTITLE22=Lenny Dee - Fuckin' Hostile
EXTD=
EXTT0=
EXTT1=
EXTT2=
EXTT3=
EXTT4=
EXTT5=
EXTT6=
EXTT7=
EXTT8=
EXTT9=
EXTT10=
EXTT11=
EXTT12=
EXTT13=
EXTT14=
EXTT15=
EXTT16=
EXTT17=
EXTT18=
EXTT19=
EXTT20=
EXTT21=
EXTT22=
PLAYORDER=
